<?xml version="1.0" encoding="utf-8"?>
<!-- Generator: Adobe Illustrator 16.0.4, SVG Export Plug-In . SVG Version: 6.00 Build 0)  -->
<!DOCTYPE svg PUBLIC "-//W3C//DTD SVG 1.1//EN" "http://www.w3.org/Graphics/SVG/1.1/DTD/svg11.dtd">
<svg version="1.1" id="Layer_1" xmlns="http://www.w3.org/2000/svg" xmlns:xlink="http://www.w3.org/1999/xlink" x="0px" y="0px"
	 width="512px" height="73.775px" viewBox="0 0 512 73.775" enable-background="new 0 0 512 73.775" xml:space="preserve">
<g>
	<path d="M42.875,44.585c-1.212,1.212-2.708,1.818-4.49,1.818c-3.993,0-5.989-2.317-5.989-6.95c0-0.854,0.019-1.765,0.054-2.728
		c0.037-0.961,0.053-1.87,0.053-2.726c0-1.64-0.249-3.012-0.748-4.117c-0.499-1.104-1.159-1.978-1.978-2.618
		c-0.82-0.643-1.729-1.105-2.727-1.391c-0.998-0.286-2.031-0.428-3.102-0.428c-3.635,0-6.504,1.551-8.605,4.65
		c-2.104,3.102-3.156,7.11-3.156,12.029c0,3.563,0.428,6.788,1.284,9.676c0.855,2.888,2.031,5.346,3.528,7.378
		c1.497,2.03,3.278,3.581,5.347,4.65c2.066,1.069,4.311,1.604,6.735,1.604c1.425,0,2.781-0.125,4.063-0.374
		c1.284-0.249,2.531-0.66,3.741-1.229c1.499-0.784,2.692-1.657,3.584-2.62c0.89-0.961,1.602-1.853,2.138-2.672
		c0.533-0.82,0.944-1.515,1.229-2.085s0.536-0.854,0.748-0.854c0.571,0,0.856,0.285,0.856,0.854c0,0.712-0.339,2.014-1.017,3.903
		c-0.676,1.889-1.853,3.832-3.529,5.827c-1.674,1.996-3.884,3.761-6.628,5.293c-2.745,1.532-6.183,2.299-10.319,2.299
		c-3.635,0-6.912-0.624-9.836-1.872c-2.921-1.247-5.434-2.975-7.537-5.186c-2.103-2.21-3.725-4.774-4.865-7.698
		C0.571,56.097,0,52.96,0,49.611c0-3.707,0.606-7.147,1.819-10.318c1.211-3.172,2.922-5.934,5.13-8.286
		c2.21-2.353,4.83-4.187,7.859-5.507c3.029-1.317,6.362-1.978,9.997-1.978c2.993,0,5.72,0.445,8.179,1.337
		c2.459,0.891,4.544,2.066,6.255,3.526c1.71,1.462,3.047,3.103,4.009,4.919c0.963,1.817,1.444,3.688,1.444,5.613
		C44.692,41.485,44.087,43.374,42.875,44.585z"/>
	<path d="M101.733,58.432c-1.39,3.027-3.315,5.684-5.773,7.964c-2.459,2.281-5.365,4.082-8.714,5.4
		c-3.351,1.318-7.021,1.979-11.013,1.979c-3.991,0-7.664-0.66-11.013-1.979c-3.351-1.318-6.255-3.119-8.715-5.4
		c-2.458-2.28-4.383-4.937-5.772-7.964c-1.391-3.03-2.085-6.292-2.085-9.784c0-3.493,0.694-6.754,2.085-9.783
		c1.39-3.03,3.314-5.684,5.772-7.966c2.459-2.28,5.364-4.081,8.715-5.399c3.349-1.317,7.021-1.978,11.013-1.978
		c3.992,0,7.662,0.66,11.013,1.978c3.35,1.32,6.255,3.119,8.714,5.399c2.458,2.282,4.383,4.936,5.773,7.966
		c1.391,3.029,2.084,6.29,2.084,9.783S103.124,55.402,101.733,58.432z M88.634,48.648c0-7.77-1.014-13.579-3.046-17.429
		c-2.031-3.848-5.186-5.772-9.462-5.772c-3.85,0-6.86,1.818-9.034,5.453c-2.175,3.636-3.262,9.552-3.262,17.749
		c0,15.468,4.134,23.202,12.403,23.202C84.5,71.85,88.634,64.116,88.634,48.648z"/>
	<path d="M128.226,28.547c1.498-0.926,3.047-1.764,4.651-2.512s3.297-1.354,5.079-1.818c1.782-0.462,3.706-0.694,5.774-0.694
		c3.849,0,6.86,1.068,9.033,3.208c2.175,2.139,3.262,5.025,3.262,8.661V64.58c0,2.067,0.392,3.477,1.176,4.225
		c0.785,0.747,1.64,1.229,2.566,1.442c0.927,0.214,1.783,0.375,2.567,0.482c0.784,0.105,1.176,0.479,1.176,1.122
		c0,0.854-0.5,1.282-1.497,1.282c-1.211,0-2.923-0.035-5.133-0.106c-2.209-0.071-4.74-0.106-7.591-0.106
		c-2.852,0-5.381,0.036-7.591,0.106c-2.209,0.072-3.885,0.106-5.025,0.106c-0.642,0-1.069-0.089-1.283-0.267
		c-0.214-0.178-0.322-0.517-0.322-1.016c0-0.713,0.392-1.087,1.176-1.122c0.784-0.036,1.64-0.18,2.567-0.429
		c0.926-0.25,1.781-0.767,2.566-1.55c0.785-0.785,1.176-2.282,1.176-4.491V36.14c0-2.281-0.536-4.101-1.604-5.454
		c-1.069-1.354-2.816-2.032-5.238-2.032c-1.925,0-3.814,0.446-5.667,1.337s-3.956,2.155-6.309,3.796v30.579
		c0,2.138,0.393,3.599,1.177,4.384c0.783,0.783,1.64,1.282,2.565,1.496c0.927,0.214,1.783,0.356,2.567,0.428
		s1.177,0.462,1.177,1.177c0,0.854-0.5,1.282-1.497,1.282c-1.213,0-2.923-0.035-5.133-0.106c-2.209-0.071-4.741-0.106-7.591-0.106
		c-2.852,0-5.382,0.036-7.591,0.106c-2.209,0.072-3.885,0.106-5.025,0.106c-0.57,0-0.98-0.07-1.229-0.214
		c-0.249-0.143-0.375-0.499-0.375-1.068c0-0.713,0.392-1.105,1.176-1.177c0.785-0.071,1.64-0.214,2.567-0.428
		c0.926-0.214,1.782-0.713,2.566-1.496c0.784-0.785,1.176-2.21,1.176-4.277V37.208c0-1.212-0.321-2.352-0.963-3.421
		c-0.641-1.07-1.568-1.853-2.779-2.353c-1.211-0.498-2.139-0.837-2.78-1.016c-0.641-0.178-0.963-0.48-0.963-0.91
		c0-0.57,0.268-0.927,0.802-1.068c0.535-0.144,1.409-0.356,2.619-0.643c1.212-0.284,3.315-0.729,6.309-1.337
		c2.993-0.604,6.735-1.585,11.226-2.939v7.805L128.226,28.547z"/>
	<path d="M191.632,28.547c1.498-0.926,3.048-1.764,4.653-2.512c1.602-0.748,3.296-1.354,5.078-1.818
		c1.781-0.462,3.707-0.694,5.774-0.694c3.85,0,6.859,1.068,9.034,3.208c2.175,2.139,3.261,5.025,3.261,8.661V64.58
		c0,2.067,0.393,3.477,1.176,4.225c0.784,0.747,1.64,1.229,2.566,1.442c0.927,0.214,1.783,0.375,2.567,0.482
		c0.784,0.105,1.176,0.479,1.176,1.122c0,0.854-0.499,1.282-1.496,1.282c-1.213,0-2.924-0.035-5.133-0.106
		c-2.21-0.071-4.741-0.106-7.592-0.106c-2.851,0-5.382,0.036-7.591,0.106c-2.21,0.072-3.885,0.106-5.026,0.106
		c-0.641,0-1.069-0.089-1.281-0.267c-0.215-0.178-0.322-0.517-0.322-1.016c0-0.713,0.392-1.087,1.176-1.122
		c0.784-0.036,1.64-0.18,2.567-0.429c0.925-0.25,1.782-0.767,2.566-1.55c0.783-0.785,1.176-2.282,1.176-4.491V36.14
		c0-2.281-0.535-4.101-1.604-5.454c-1.069-1.354-2.816-2.032-5.239-2.032c-1.924,0-3.813,0.446-5.667,1.337
		c-1.853,0.891-3.957,2.155-6.309,3.796v30.579c0,2.138,0.392,3.599,1.176,4.384c0.785,0.783,1.64,1.282,2.566,1.496
		c0.927,0.214,1.783,0.356,2.567,0.428c0.785,0.071,1.176,0.462,1.176,1.177c0,0.854-0.499,1.282-1.497,1.282
		c-1.211,0-2.923-0.035-5.133-0.106c-2.208-0.071-4.74-0.106-7.59-0.106c-2.853,0-5.382,0.036-7.592,0.106
		c-2.209,0.072-3.885,0.106-5.025,0.106c-0.57,0-0.98-0.07-1.229-0.214c-0.249-0.143-0.375-0.499-0.375-1.068
		c0-0.713,0.393-1.105,1.176-1.177c0.784-0.071,1.64-0.214,2.568-0.428c0.925-0.214,1.781-0.713,2.565-1.496
		c0.784-0.785,1.176-2.21,1.176-4.277V37.208c0-1.212-0.32-2.352-0.963-3.421c-0.641-1.07-1.568-1.853-2.778-2.353
		c-1.213-0.498-2.14-0.837-2.781-1.016c-0.642-0.178-0.963-0.48-0.963-0.91c0-0.57,0.268-0.927,0.803-1.068
		c0.533-0.144,1.407-0.356,2.618-0.643c1.212-0.284,3.316-0.729,6.309-1.337c2.994-0.604,6.736-1.585,11.226-2.939v7.805
		L191.632,28.547z"/>
	<path d="M238.333,54.101c0.925,2.423,3.173,4.473,4.742,6.148c1.568,1.674,3.402,2.958,5.506,3.849
		c2.102,0.892,4.401,1.337,6.896,1.337c2.638,0,4.812-0.339,6.521-1.017c1.713-0.677,3.244-1.585,4.6-2.726
		c1.067-0.926,1.871-1.747,2.404-2.459c0.535-0.713,0.928-1.336,1.178-1.87c0.247-0.536,0.463-0.945,0.641-1.23
		c0.179-0.284,0.41-0.427,0.693-0.427c0.43,0,0.643,0.249,0.643,0.748c0,0.927-0.374,2.354-1.122,4.276
		c-0.748,1.925-1.996,3.85-3.742,5.773c-1.746,1.926-4.062,3.618-6.948,5.079c-2.888,1.461-6.469,2.193-10.746,2.193
		c-3.636,0-6.915-0.624-9.837-1.872c-2.923-1.247-5.436-2.994-7.537-5.239c-2.104-2.245-3.707-4.918-4.811-8.019
		c-1.105-3.102-1.659-6.539-1.659-10.318c0-3.563,0.587-6.861,1.764-9.89c1.176-3.03,2.834-5.65,4.973-7.858
		c2.138-2.21,4.668-3.938,7.591-5.186c2.922-1.247,6.095-1.871,9.516-1.871c3.137,0,6.058,0.517,8.767,1.55s5.078,2.513,7.107,4.437
		c2.033,1.925,3.639,4.277,4.812,7.058c1.178,2.779,1.802,5.917,1.869,9.408h-34.212C237.942,48.969,237.406,51.677,238.333,54.101z
		 M257.081,30.045c-1.354-3.064-3.922-4.599-7.699-4.599c-3.207,0-5.88,1.479-8.019,4.437c-2.138,2.958-3.279,7.467-3.421,13.525
		h21.385C259.186,37.565,258.436,33.109,257.081,30.045z"/>
	<path d="M319.736,44.585c-1.211,1.212-2.709,1.818-4.49,1.818c-3.992,0-5.988-2.317-5.988-6.95c0-0.854,0.018-1.765,0.055-2.728
		c0.037-0.961,0.053-1.87,0.053-2.726c0-1.64-0.248-3.012-0.748-4.117c-0.498-1.104-1.159-1.978-1.977-2.618
		c-0.82-0.643-1.729-1.105-2.729-1.391c-0.998-0.286-2.029-0.428-3.101-0.428c-3.637,0-6.504,1.551-8.605,4.65
		c-2.104,3.102-3.156,7.11-3.156,12.029c0,3.563,0.43,6.788,1.284,9.676c0.856,2.888,2.033,5.346,3.528,7.378
		c1.496,2.03,3.277,3.581,5.348,4.65c2.064,1.069,4.311,1.604,6.734,1.604c1.425,0,2.781-0.125,4.062-0.374
		c1.283-0.249,2.531-0.66,3.742-1.229c1.498-0.784,2.69-1.657,3.583-2.62c0.891-0.961,1.602-1.853,2.138-2.672
		c0.533-0.82,0.944-1.515,1.23-2.085c0.282-0.57,0.534-0.854,0.747-0.854c0.57,0,0.855,0.285,0.855,0.854
		c0,0.712-0.34,2.014-1.016,3.903c-0.678,1.889-1.854,3.832-3.529,5.827c-1.675,1.996-3.884,3.761-6.628,5.293
		c-2.743,1.532-6.183,2.299-10.319,2.299c-3.636,0-6.912-0.624-9.836-1.872c-2.922-1.247-5.436-2.975-7.537-5.186
		c-2.103-2.21-3.725-4.774-4.863-7.698c-1.143-2.922-1.713-6.06-1.713-9.408c0-3.707,0.607-7.147,1.818-10.318
		c1.213-3.172,2.924-5.934,5.131-8.286c2.209-2.353,4.83-4.187,7.858-5.507c3.03-1.317,6.362-1.978,9.998-1.978
		c2.992,0,5.722,0.445,8.181,1.337c2.457,0.891,4.543,2.066,6.254,3.527c1.709,1.461,3.047,3.102,4.01,4.918
		c0.963,1.817,1.441,3.688,1.441,5.613C321.553,41.485,320.949,43.374,319.736,44.585z"/>
	<path d="M343.719,24.378h14.756l-2.566,5.132h-12.188v30.045c0,3.064,0.605,5.346,1.817,6.842c1.211,1.497,2.886,2.246,5.022,2.246
		c2.283,0,4.242-0.712,5.883-2.14c0.713-0.642,1.248-1.176,1.604-1.604s0.606-0.802,0.748-1.123
		c0.144-0.321,0.269-0.552,0.374-0.695c0.105-0.143,0.27-0.213,0.48-0.213c0.5,0,0.748,0.284,0.748,0.855
		c0,0.499-0.301,1.301-0.909,2.405c-0.604,1.105-1.55,2.229-2.833,3.368c-1.281,1.142-2.956,2.14-5.023,2.993
		c-2.068,0.856-4.527,1.284-7.378,1.284c-4.774,0-8.305-1.267-10.585-3.797c-2.281-2.529-3.421-5.72-3.421-9.569V29.51h-6.63
		c3.777-3.064,7.289-6.416,10.531-10.05c3.244-3.636,6.361-8.126,9.355-13.472h0.213V24.378L343.719,24.378z"/>
	<path d="M385.075,69.124c1.175,0.748,2.405,1.194,3.688,1.336c0.854,0.143,1.621,0.269,2.299,0.374
		c0.678,0.106,1.017,0.446,1.017,1.017c0,0.569-0.126,0.926-0.376,1.068c-0.248,0.144-0.66,0.214-1.229,0.214
		c-1.427,0-3.352-0.035-5.773-0.106c-2.426-0.071-5.135-0.106-8.126-0.106c-2.994,0-5.703,0.036-8.126,0.106
		c-2.424,0.072-4.35,0.106-5.774,0.106c-0.569,0-0.979-0.07-1.229-0.214c-0.25-0.143-0.373-0.499-0.373-1.068
		c0-0.499,0.23-0.82,0.693-0.962c0.465-0.144,1.055-0.249,1.767-0.321c0.784-0.071,1.55-0.196,2.298-0.374s1.425-0.481,2.031-0.909
		c0.605-0.428,1.087-1.017,1.443-1.765s0.534-1.729,0.534-2.94V38.277c0-2.209-0.5-3.742-1.496-4.597
		c-0.997-0.855-2.069-1.463-3.209-1.818c-0.998-0.356-1.89-0.624-2.671-0.802c-0.786-0.179-1.178-0.553-1.178-1.122
		c0-0.571,0.302-0.928,0.91-1.069c0.604-0.144,1.584-0.355,2.938-0.642c1.783-0.356,4.151-0.873,7.11-1.552
		c2.957-0.676,6.646-1.729,11.065-3.153V64.58C383.311,66.86,383.898,68.375,385.075,69.124z"/>
	<path d="M442.866,58.432c-1.391,3.027-3.315,5.684-5.773,7.964c-2.461,2.281-5.364,4.082-8.715,5.4s-7.02,1.979-11.012,1.979
		s-7.663-0.66-11.015-1.979c-3.351-1.318-6.254-3.119-8.713-5.4c-2.461-2.28-4.386-4.937-5.772-7.964
		c-1.391-3.03-2.087-6.292-2.087-9.784c0-3.493,0.696-6.754,2.087-9.783c1.388-3.03,3.312-5.684,5.772-7.966
		c2.459-2.28,5.362-4.081,8.713-5.399c3.352-1.317,7.021-1.978,11.015-1.978s7.661,0.66,11.012,1.978
		c3.351,1.32,6.254,3.119,8.715,5.399c2.458,2.282,4.384,4.936,5.773,7.966c1.39,3.029,2.085,6.29,2.085,9.783
		S444.256,55.402,442.866,58.432z M429.768,48.648c0-7.77-1.016-13.579-3.047-17.429c-2.028-3.848-5.186-5.772-9.461-5.772
		c-3.851,0-6.861,1.818-9.035,5.453c-2.174,3.636-3.262,9.552-3.262,17.749c0,15.468,4.134,23.202,12.403,23.202
		C425.634,71.85,429.768,64.116,429.768,48.648z"/>
	<path d="M468.717,28.547c1.496-0.926,3.045-1.764,4.649-2.512c1.604-0.748,3.297-1.354,5.079-1.818
		c1.78-0.462,3.706-0.694,5.772-0.694c3.852,0,6.86,1.068,9.035,3.208c2.173,2.139,3.262,5.025,3.262,8.661V64.58
		c0,2.067,0.393,3.477,1.175,4.225c0.784,0.747,1.642,1.229,2.567,1.442c0.925,0.214,1.781,0.375,2.565,0.482
		c0.783,0.105,1.177,0.479,1.177,1.122c0,0.854-0.5,1.282-1.498,1.282c-1.213,0-2.921-0.035-5.132-0.106s-4.74-0.106-7.593-0.106
		c-2.852,0-5.382,0.036-7.59,0.106c-2.21,0.072-3.888,0.106-5.026,0.106c-0.643,0-1.068-0.089-1.281-0.267
		c-0.215-0.178-0.321-0.517-0.321-1.016c0-0.713,0.394-1.087,1.177-1.122c0.785-0.036,1.64-0.18,2.565-0.429
		c0.926-0.25,1.782-0.767,2.565-1.55c0.783-0.785,1.177-2.282,1.177-4.491V36.14c0-2.281-0.535-4.101-1.604-5.454
		c-1.069-1.354-2.815-2.032-5.238-2.032c-1.926,0-3.815,0.446-5.668,1.337c-1.854,0.891-3.956,2.155-6.31,3.796v30.579
		c0,2.138,0.393,3.599,1.176,4.384c0.784,0.783,1.64,1.282,2.566,1.496s1.781,0.356,2.566,0.428
		c0.784,0.071,1.176,0.462,1.176,1.177c0,0.854-0.498,1.282-1.496,1.282c-1.213,0-2.924-0.035-5.132-0.106
		c-2.211-0.071-4.74-0.106-7.593-0.106c-2.852,0-5.382,0.036-7.591,0.106c-2.21,0.072-3.887,0.106-5.025,0.106
		c-0.569,0-0.98-0.07-1.23-0.214c-0.248-0.143-0.372-0.499-0.372-1.068c0-0.713,0.393-1.105,1.177-1.177
		c0.782-0.071,1.64-0.214,2.565-0.428s1.781-0.713,2.565-1.496c0.783-0.785,1.175-2.21,1.175-4.277V37.208
		c0-1.212-0.319-2.352-0.963-3.421c-0.64-1.07-1.566-1.853-2.777-2.353c-1.213-0.498-2.14-0.837-2.781-1.016
		c-0.64-0.178-0.961-0.48-0.961-0.91c0-0.57,0.267-0.927,0.803-1.068c0.535-0.144,1.406-0.356,2.62-0.643
		c1.21-0.284,3.312-0.729,6.307-1.337c2.994-0.604,6.736-1.585,11.227-2.939v7.805L468.717,28.547z"/>
</g>
<path fill="#C92A2A" d="M381.919,12.938c-1.496,1.497-3.276,2.245-5.344,2.245s-3.851-0.748-5.347-2.245
	c-1.498-1.498-2.246-3.28-2.246-5.348c0-2.066,0.748-3.849,2.246-5.345C372.725,0.749,374.508,0,376.575,0
	c2.065,0,3.848,0.749,5.344,2.246c1.498,1.496,2.246,3.278,2.246,5.345C384.165,9.658,383.417,11.44,381.919,12.938z"/>
</svg>
